<svg width="25" height="24" viewBox="0 0 25 24" fill="none" xmlns="http://www.w3.org/2000/svg">
    <path
        d="M20.9705 2.00014H4.03055C3.84013 1.9975 3.65105 2.03239 3.47411 2.10282C3.29718 2.17326 3.13585 2.27786 2.99934 2.41065C2.86284 2.54344 2.75383 2.70182 2.67854 2.87675C2.60325 3.05167 2.56316 3.23972 2.56055 3.43014V20.5701C2.56316 20.7606 2.60325 20.9486 2.67854 21.1235C2.75383 21.2985 2.86284 21.4568 2.99934 21.5896C3.13585 21.7224 3.29718 21.827 3.47411 21.8975C3.65105 21.9679 3.84013 22.0028 4.03055 22.0001H20.9705C21.161 22.0028 21.35 21.9679 21.527 21.8975C21.7039 21.827 21.8652 21.7224 22.0017 21.5896C22.1383 21.4568 22.2473 21.2985 22.3226 21.1235C22.3978 20.9486 22.4379 20.7606 22.4405 20.5701V3.43014C22.4379 3.23972 22.3978 3.05167 22.3226 2.87675C22.2473 2.70182 22.1383 2.54344 22.0017 2.41065C21.8652 2.27786 21.7039 2.17326 21.527 2.10282C21.35 2.03239 21.161 1.9975 20.9705 2.00014ZM8.59055 18.7401H5.59055V9.74014H8.59055V18.7401ZM7.09055 8.48014C6.67681 8.48014 6.28002 8.31578 5.98746 8.02323C5.6949 7.73067 5.53055 7.33388 5.53055 6.92014C5.53055 6.5064 5.6949 6.10961 5.98746 5.81705C6.28002 5.5245 6.67681 5.36014 7.09055 5.36014C7.31024 5.33522 7.53272 5.35699 7.74342 5.42402C7.95412 5.49105 8.14829 5.60183 8.3132 5.7491C8.47812 5.89637 8.61007 6.07682 8.70042 6.27862C8.79076 6.48043 8.83746 6.69904 8.83746 6.92014C8.83746 7.14124 8.79076 7.35985 8.70042 7.56166C8.61007 7.76346 8.47812 7.94391 8.3132 8.09118C8.14829 8.23845 7.95412 8.34923 7.74342 8.41626C7.53272 8.48329 7.31024 8.50505 7.09055 8.48014ZM19.4105 18.7401H16.4105V13.9101C16.4105 12.7001 15.9805 11.9101 14.8905 11.9101C14.5532 11.9126 14.2247 12.0184 13.9494 12.2133C13.674 12.4082 13.465 12.6828 13.3505 13.0001C13.2723 13.2352 13.2384 13.4827 13.2505 13.7301V18.7301H10.2505C10.2505 18.7301 10.2505 10.5501 10.2505 9.73014H13.2505V11.0001C13.5231 10.5272 13.9195 10.1377 14.397 9.87334C14.8745 9.60902 15.4151 9.47999 15.9605 9.50014C17.9605 9.50014 19.4105 10.7901 19.4105 13.5601V18.7401Z"
        fill="black" />
</svg>
