<svg width="32" height="32" viewBox="0 0 32 32" fill="none" xmlns="http://www.w3.org/2000/svg">
    <g clip-path="url(#clip0_17_883)">
        <path
            d="M25.333 11.6137L18.2224 6.08301C17.5984 5.59755 16.8303 5.33398 16.0397 5.33398C15.2491 5.33398 14.4811 5.59755 13.857 6.08301L6.74505 11.6137C6.31764 11.9461 5.97184 12.3717 5.73405 12.8581C5.49627 13.3446 5.37279 13.8789 5.37305 14.4203V24.0203C5.37305 24.7276 5.654 25.4059 6.1541 25.906C6.65419 26.4061 7.33247 26.687 8.03971 26.687H24.0397C24.747 26.687 25.4252 26.4061 25.9253 25.906C26.4254 25.4059 26.7064 24.7276 26.7064 24.0203V14.4203C26.7064 13.323 26.1997 12.287 25.333 11.6137Z"
            fill="#6851FF" stroke="#6851FF" stroke-width="3" stroke-linecap="round" stroke-linejoin="round" />
        <path d="M21.3327 20C18.386 21.7773 13.61 21.7773 10.666 20" stroke="#D6D8E5" stroke-width="3"
            stroke-linecap="round" stroke-linejoin="round" />
    </g>
    <defs>
        <clipPath id="clip0_17_883">
            <rect width="32" height="32" fill="white" />
        </clipPath>
    </defs>
</svg>
